<?xml version="1.0" encoding="UTF-8" standalone="no"?>
<!DOCTYPE svg PUBLIC "-//W3C//DTD SVG 1.1//EN"
 "http://www.w3.org/Graphics/SVG/1.1/DTD/svg11.dtd">
<!-- Generated by graphviz version 2.47.0 (20210316.0004)
 -->
<!-- Title: dependencies Pages: 1 -->
<svg width="504pt" height="211pt"
 viewBox="0.00 0.00 504.00 211.00" xmlns="http://www.w3.org/2000/svg" xmlns:xlink="http://www.w3.org/1999/xlink">
<g id="graph0" class="graph" transform="scale(1 1) rotate(0) translate(4 207)">
<title>dependencies</title>
<polygon fill="white" stroke="transparent" points="-4,4 -4,-207 500,-207 500,4 -4,4"/>
<text text-anchor="start" x="227.01" y="-42.4" font-family="Times-12" font-weight="bold" font-size="14.00">Legend</text>
<polygon fill="#ffffb3" stroke="transparent" points="14,-10 14,-30 34,-30 34,-10 14,-10"/>
<text text-anchor="start" x="37.63" y="-15.4" font-family="Times-12" font-size="14.00"> &#160;Declarations</text>
<polygon fill="#8dd3c7" stroke="transparent" points="127,-10 127,-30 147,-30 147,-10 127,-10"/>
<text text-anchor="start" x="150.73" y="-15.4" font-family="Times-12" font-size="14.00"> &#160;Module</text>
<polygon fill="#80b1d3" stroke="transparent" points="213,-10 213,-30 233,-30 233,-10 213,-10"/>
<text text-anchor="start" x="236.78" y="-15.4" font-family="Times-12" font-size="14.00"> &#160;Bootstrap</text>
<polygon fill="#fdb462" stroke="transparent" points="310,-10 310,-30 330,-30 330,-10 310,-10"/>
<text text-anchor="start" x="333.67" y="-15.4" font-family="Times-12" font-size="14.00"> &#160;Providers</text>
<polygon fill="#fb8072" stroke="transparent" points="406,-10 406,-30 426,-30 426,-10 406,-10"/>
<text text-anchor="start" x="429.73" y="-15.4" font-family="Times-12" font-size="14.00"> &#160;Exports</text>
<g id="clust1" class="cluster">
<title>cluster_VerificarPageModule</title>
<polygon fill="none" stroke="black" stroke-dasharray="1,5" points="82,-70 82,-195 414,-195 414,-70 82,-70"/>
</g>
<g id="clust2" class="cluster">
<title>cluster_VerificarPageModule_declarations</title>
<polygon fill="none" stroke="black" points="296,-78 296,-130 406,-130 406,-78 296,-78"/>
</g>
<g id="clust4" class="cluster">
<title>cluster_VerificarPageModule_imports</title>
<polygon fill="none" stroke="black" points="90,-78 90,-130 288,-130 288,-78 90,-78"/>
</g>
<!-- VerificarPage -->
<g id="node1" class="node">
<title>VerificarPage</title>
<polygon fill="#ffffb3" stroke="black" points="397.73,-122 304.27,-122 304.27,-86 397.73,-86 397.73,-122"/>
<text text-anchor="middle" x="351" y="-99.8" font-family="Times,serif" font-size="14.00">VerificarPage</text>
</g>
<!-- VerificarPageModule -->
<g id="node2" class="node">
<title>VerificarPageModule</title>
<polygon fill="#8dd3c7" stroke="black" points="331.78,-187 328.78,-191 307.78,-191 304.78,-187 194.22,-187 194.22,-151 331.78,-151 331.78,-187"/>
<text text-anchor="middle" x="263" y="-164.8" font-family="Times,serif" font-size="14.00">VerificarPageModule</text>
</g>
<!-- VerificarPage&#45;&gt;VerificarPageModule -->
<g id="edge1" class="edge">
<title>VerificarPage&#45;&gt;VerificarPageModule</title>
<path fill="none" stroke="black" d="M317.89,-122.11C317.89,-122.11 317.89,-140.99 317.89,-140.99"/>
<polygon fill="black" stroke="black" points="314.39,-140.99 317.89,-150.99 321.39,-140.99 314.39,-140.99"/>
</g>
<!-- VerificarPageRoutingModule -->
<g id="node3" class="node">
<title>VerificarPageRoutingModule</title>
<polygon fill="#8dd3c7" stroke="black" points="280.39,-122 277.39,-126 256.39,-126 253.39,-122 97.61,-122 97.61,-86 280.39,-86 280.39,-122"/>
<text text-anchor="middle" x="189" y="-99.8" font-family="Times,serif" font-size="14.00">VerificarPageRoutingModule</text>
</g>
<!-- VerificarPageRoutingModule&#45;&gt;VerificarPageModule -->
<g id="edge2" class="edge">
<title>VerificarPageRoutingModule&#45;&gt;VerificarPageModule</title>
<path fill="none" stroke="black" d="M237.28,-122.11C237.28,-122.11 237.28,-140.99 237.28,-140.99"/>
<polygon fill="black" stroke="black" points="233.78,-140.99 237.28,-150.99 240.78,-140.99 233.78,-140.99"/>
</g>
</g>
</svg>
